<?xml version="1.0" standalone="no"?><!DOCTYPE svg PUBLIC "-//W3C//DTD SVG 1.1//EN" "http://www.w3.org/Graphics/SVG/1.1/DTD/svg11.dtd"><svg t="1567606388112" class="icon" viewBox="0 0 1024 1024" version="1.1" xmlns="http://www.w3.org/2000/svg" p-id="1194" xmlns:xlink="http://www.w3.org/1999/xlink" width="200" height="200"><defs><style type="text/css"></style></defs><path d="M582.7 62.4c123.7 2.2 103.4 90.7 151.1 179.2C795.1 355.2 876.1 484.4 876.1 618c0 237.5-163.2 340.5-364.5 340.5S147.1 855.5 147.1 618c0-237.6 234.4-559.2 435.6-555.6z" fill="#FFF312" p-id="1195"></path><path d="M582.7 62.4c88.1 0 103.4 90.7 151.1 179.2C795.1 355.2 876.1 484.4 876.1 618c0 237.5-163.2 339.9-364.5 340.5-201.6 0.7 193.6-97.3 195.2-338.3 1.6-237.6-200.9-473.3-124.1-557.8z" fill="#C8EA00" p-id="1196"></path><path d="M511.6 897.7c113.4 0 303.7-36.3 303.7-279.8 0-102.2-57.1-205.9-112.4-306.2-7.7-13.9-15.3-27.7-22.6-41.3-16.2-30-25.3-58.4-33.4-83.6-17.9-55.7-20.2-62.9-65.4-63.7h-2.3c-159.7 0-371.5 282.1-371.5 494.8 0.2 243.5 190.5 279.8 303.9 279.8m0 60.8c-201.3 0-364.5-103-364.5-340.5 0-236.2 231.7-555.6 432.2-555.6h3.4c123.7 2.2 103.4 90.7 151.1 179.2C795.1 355.2 876.1 484.4 876.1 618c0 237.5-163.2 340.5-364.5 340.5z" fill="#3C3A50" p-id="1197"></path><path d="M363 661.8c6.9 15.3 0 33.3-15.3 40.1-15.3 6.8-33.3 0-40.1-15.3-11.7-26.2-18.2-57.3-18.2-93.7 0-16.8 13.6-30.4 30.4-30.4 16.8 0 30.4 13.6 30.4 30.4-0.1 26.6 4.3 49.8 12.8 68.9m15.9-178.7c-7.2 15.2-25.4 21.6-40.5 14.4-15.1-7.2-21.5-25.4-14.3-40.5C373.9 352.4 469.4 259.6 555 259.6c16.8 0 30.4 13.6 30.4 30.4 0 16.8-13.6 30.4-30.4 30.4-54.3-0.1-133.3 72.9-176.1 162.7" fill="#FFFFFF" p-id="1198"></path></svg>